<?xml version="1.0" encoding="UTF-8" standalone="no"?>
<svg
   xmlns:dc="http://purl.org/dc/elements/1.1/"
   xmlns:cc="http://creativecommons.org/ns#"
   xmlns:rdf="http://www.w3.org/1999/02/22-rdf-syntax-ns#"
   xmlns:svg="http://www.w3.org/2000/svg"
   xmlns="http://www.w3.org/2000/svg"
   xmlns:sodipodi="http://sodipodi.sourceforge.net/DTD/sodipodi-0.dtd"
   xmlns:inkscape="http://www.inkscape.org/namespaces/inkscape"
   version="1.0"
   width="768px"
   height="768px"
   viewBox="0 0 7680 7680"
   preserveAspectRatio="xMidYMid meet"
   id="svg7"
   sodipodi:docname="icon_fg.svg"
   inkscape:version="0.92.4 (5da689c313, 2019-01-14)">
  <metadata
     id="metadata13">
    <rdf:RDF>
      <cc:Work
         rdf:about="">
        <dc:format>image/svg+xml</dc:format>
        <dc:type
           rdf:resource="http://purl.org/dc/dcmitype/StillImage" />
        <dc:title />
      </cc:Work>
    </rdf:RDF>
  </metadata>
  <defs
     id="defs11" />
  <sodipodi:namedview
     pagecolor="#464646"
     bordercolor="#666666"
     borderopacity="1"
     objecttolerance="10"
     gridtolerance="10"
     guidetolerance="10"
     inkscape:pageopacity="0"
     inkscape:pageshadow="2"
     inkscape:window-width="1093"
     inkscape:window-height="750"
     id="namedview9"
     showgrid="false"
     inkscape:zoom="0.61458333"
     inkscape:cx="266.82621"
     inkscape:cy="468.32959"
     inkscape:window-x="499"
     inkscape:window-y="107"
     inkscape:window-maximized="0"
     inkscape:current-layer="svg7" />
  <g
     id="layer101"
     fill="#ffffff"
     stroke="none"
     style="stroke:#d00000;stroke-opacity:1;stroke-width:1;stroke-miterlimit:4;stroke-dasharray:none">
    <path
       d="M1805 7070 c-481 -8 -607 -17 -708 -51 -187 -63 -416 -240 -536 -413 -249 -362 -282 -847 -84 -1241 160 -317 418 -516 772 -595 139 -31 137 -28 92 -93 -15 -23 -45 -76 -66 -117 -83 -166 -112 -276 -122 -475 -7 -147 7 -265 49 -394 59 -186 140 -321 269 -450 176 -175 387 -282 590 -299 81 -7 84 -8 83 -32 -1 -14 -13 -65 -28 -115 -51 -170 -68 -264 -73 -422 -11 -313 61 -552 247 -815 80 -113 301 -343 431 -447 356 -287 752 -462 1132 -501 54 -5 109 -7 121 -4 23 5 66 69 66 97 0 8 -33 65 -74 125 -83 124 -102 180 -93 274 7 84 46 155 120 224 109 101 243 177 601 339 93 42 199 91 236 110 173 87 372 252 506 419 121 151 221 396 252 616 8 63 16 116 17 118 1 1 49 15 106 31 57 17 131 42 164 56 166 74 355 237 459 396 70 108 110 197 144 319 25 90 27 107 26 310 0 206 -1 219 -28 305 -30 97 -99 252 -147 326 -16 25 -29 51 -29 57 0 6 26 19 58 27 227 63 317 100 437 180 292 195 478 538 501 928 19 307 -100 636 -311 864 -164 178 -399 304 -618 334 -98 13 -3845 21 -4562 9z m2161 -577 c233 -279 524 -690 667 -943 337 -598 421 -1004 287 -1396 -57 -168 -171 -347 -291 -459 -451 -417 -1120 -419 -1571 -5 -143 130 -271 347 -324 545 -36 137 -44 341 -19 482 57 319 224 684 510 1118 209 317 576 785 615 785 12 0 58 -47 126 -127z"
       id="path2"
       style="stroke:#d00000;stroke-opacity:1;stroke-width:1;stroke-miterlimit:4;stroke-dasharray:none" />
    <path
       d="M3740 4884 c-141 -38 -243 -153 -271 -305 -28 -156 64 -326 215 -396 53 -24 73 -28 156 -28 82 0 103 4 152 27 111 52 185 143 215 264 46 186 -79 388 -272 439 -72 18 -123 18 -195 -1z"
       id="path4"
       style="stroke:#d00000;stroke-opacity:1;stroke-width:1;stroke-miterlimit:4;stroke-dasharray:none" />
  </g>
</svg>
